<svg xmlns="http://www.w3.org/2000/svg" viewBox="0 0 100 100">
  <g fill="#F5C342">
    <!-- 果体 -->
    <ellipse cx="50" cy="60" rx="22" ry="28"/>
    <!-- 顶部苞叶 -->
    <path d="M46,34 C44,22 47,10 50,4 C53,10 56,22 54,34Z"/>
    <!-- 右上苞叶 -->
    <path d="M69,46 C76,36 84,28 90,26 C89,34 80,42 69,46Z"/>
    <!-- 右中苞叶 -->
    <path d="M72,64 C80,58 89,56 94,60 C90,68 82,68 72,64Z"/>
    <!-- 左上苞叶 -->
    <path d="M31,46 C24,36 16,28 10,26 C11,34 20,42 31,46Z"/>
    <!-- 左中苞叶 -->
    <path d="M28,64 C20,58 11,56 6,60 C10,68 18,68 28,64Z"/>
  </g>
</svg>
